<?xml version="1.0" encoding="UTF-8" standalone="no"?>
<!-- Created with Inkscape (http://www.inkscape.org/) -->

<svg
   xmlns:dc="http://purl.org/dc/elements/1.1/"
   xmlns:cc="http://creativecommons.org/ns#"
   xmlns:rdf="http://www.w3.org/1999/02/22-rdf-syntax-ns#"
   xmlns:svg="http://www.w3.org/2000/svg"
   xmlns="http://www.w3.org/2000/svg"
   xmlns:xlink="http://www.w3.org/1999/xlink"
   xmlns:sodipodi="http://sodipodi.sourceforge.net/DTD/sodipodi-0.dtd"
   xmlns:inkscape="http://www.inkscape.org/namespaces/inkscape"
   width="501.52359"
   height="66.732208"
   id="svg3260"
   version="1.1"
   inkscape:version="0.48.5 r10040"
   sodipodi:docname="ossystems.svg">
  <defs
     id="defs3262">
    <filter
       color-interpolation-filters="sRGB"
       inkscape:collect="always"
       id="filter3653">
      <feGaussianBlur
         inkscape:collect="always"
         stdDeviation="0.8188125"
         id="feGaussianBlur3655" />
    </filter>
    <linearGradient
       inkscape:collect="always"
       xlink:href="#linearGradient2611"
       id="linearGradient2473"
       gradientUnits="userSpaceOnUse"
       gradientTransform="matrix(1.0607998,0,0,1.0607998,-42.878174,381.34197)"
       x1="445.35715"
       y1="-147.63782"
       x2="445.35715"
       y2="-119.2444" />
    <linearGradient
       id="linearGradient2611">
      <stop
         style="stop-color:#001f3b;stop-opacity:1;"
         offset="0"
         id="stop2613" />
      <stop
         style="stop-color:#003d75;stop-opacity:1"
         offset="1"
         id="stop2615" />
    </linearGradient>
    <linearGradient
       inkscape:collect="always"
       xlink:href="#linearGradient3910"
       id="linearGradient2470"
       gradientUnits="userSpaceOnUse"
       gradientTransform="matrix(1.0607998,0,0,1.0607998,-42.878174,507.78718)"
       x1="305.06607"
       y1="-265.8869"
       x2="305.06607"
       y2="-238.1077" />
    <linearGradient
       inkscape:collect="always"
       id="linearGradient3910">
      <stop
         style="stop-color:#000000;stop-opacity:1;"
         offset="0"
         id="stop3912" />
      <stop
         style="stop-color:#4d4d4d;stop-opacity:1"
         offset="1"
         id="stop3914" />
    </linearGradient>
    <radialGradient
       inkscape:collect="always"
       xlink:href="#linearGradient3602"
       id="radialGradient2467"
       gradientUnits="userSpaceOnUse"
       gradientTransform="matrix(1.0607998,0,0,1.0607998,-42.878174,381.34197)"
       cx="298.12946"
       cy="-118.82589"
       fx="298.12946"
       fy="-118.82589"
       r="3.8125" />
    <linearGradient
       inkscape:collect="always"
       id="linearGradient3602">
      <stop
         style="stop-color:#ffffff;stop-opacity:1;"
         offset="0"
         id="stop3604" />
      <stop
         style="stop-color:#ffffff;stop-opacity:0;"
         offset="1"
         id="stop3606" />
    </linearGradient>
    <radialGradient
       inkscape:collect="always"
       xlink:href="#linearGradient3602"
       id="radialGradient2464"
       gradientUnits="userSpaceOnUse"
       gradientTransform="matrix(1.0607998,0,0,1.0607998,1.261043,381.34197)"
       cx="298.12946"
       cy="-118.82589"
       fx="298.12946"
       fy="-118.82589"
       r="3.8125" />
    <filter
       color-interpolation-filters="sRGB"
       inkscape:collect="always"
       id="filter3808">
      <feGaussianBlur
         inkscape:collect="always"
         stdDeviation="0.91616551"
         id="feGaussianBlur3810" />
    </filter>
    <linearGradient
       inkscape:collect="always"
       xlink:href="#linearGradient4140"
       id="linearGradient2494"
       gradientUnits="userSpaceOnUse"
       gradientTransform="matrix(1.2790035,0,0,1.2790035,-285.85111,-159.82537)"
       x1="348.25009"
       y1="321.76935"
       x2="363.90744"
       y2="322.27444" />
    <linearGradient
       inkscape:collect="always"
       id="linearGradient4140">
      <stop
         style="stop-color:#0072e3;stop-opacity:1;"
         offset="0"
         id="stop4142" />
      <stop
         style="stop-color:#0072e3;stop-opacity:0;"
         offset="1"
         id="stop4144" />
    </linearGradient>
    <linearGradient
       inkscape:collect="always"
       xlink:href="#linearGradient3732"
       id="linearGradient2496"
       gradientUnits="userSpaceOnUse"
       x1="283.30054"
       y1="309.26425"
       x2="382.28528"
       y2="309.26425" />
    <linearGradient
       id="linearGradient3732"
       inkscape:collect="always">
      <stop
         id="stop3734"
         offset="0"
         style="stop-color:#002242;stop-opacity:1" />
      <stop
         id="stop3736"
         offset="1"
         style="stop-color:#0072e3;stop-opacity:1" />
    </linearGradient>
    <clipPath
       clipPathUnits="userSpaceOnUse"
       id="clipPath3986">
      <path
         inkscape:connector-curvature="0"
         style="fill:url(#linearGradient3990);fill-opacity:1;stroke:none"
         d="m 356.0706,293.4148 c -1.03253,10e-4 -2.08179,0.16955 -3.14057,0.44991 l -30.03686,7.9485 c -0.0783,0.0215 -0.12756,0.0525 -0.20132,0.075 -0.30833,0.094 -0.57569,0.19114 -0.80528,0.29994 -0.68131,0.31473 -1.02575,0.67942 -1.04686,1.04981 l 1.3287,18.5215 c 0.004,0.73593 0.65339,2.04009 1.97294,2.587 l 28.02366,11.62282 c 2.6909,1.0584 4.80825,1.0847 7.52935,0.0375 l 28.14446,-11.43533 c 1.38255,-0.53208 2.04002,-1.87295 2.01318,-2.62451 l 1.28845,-18.40902 c 0.0133,-0.0623 0.005,-0.12505 0,-0.18747 -0.0107,-0.11358 -0.05,-0.22619 -0.1208,-0.33744 -0.009,-0.0137 -0.0303,-0.0239 -0.0403,-0.0375 -0.0805,-0.11268 -0.17931,-0.23057 -0.32211,-0.33743 -0.0124,-0.009 -0.0275,-0.0286 -0.0403,-0.0375 -0.15976,-0.11278 -0.37353,-0.23517 -0.60395,-0.33743 -0.0101,-0.004 -0.03,0.004 -0.0403,0 -0.2456,-0.1067 -0.52193,-0.20914 -0.84553,-0.29995 l -0.28186,-0.075 -29.63421,-8.02349 c -1.09522,-0.29664 -2.10805,-0.45124 -3.14059,-0.44991 z"
         id="path3988" />
    </clipPath>
    <filter
       color-interpolation-filters="sRGB"
       inkscape:collect="always"
       id="filter3929">
      <feGaussianBlur
         inkscape:collect="always"
         stdDeviation="0.69272369"
         id="feGaussianBlur3931" />
    </filter>
    <linearGradient
       inkscape:collect="always"
       xlink:href="#linearGradient4008"
       id="linearGradient2498"
       gradientUnits="userSpaceOnUse"
       x1="320.96887"
       y1="367.84506"
       x2="321.44766"
       y2="357.72498" />
    <linearGradient
       inkscape:collect="always"
       id="linearGradient4008">
      <stop
         style="stop-color:#cccccc;stop-opacity:1;"
         offset="0"
         id="stop4010" />
      <stop
         style="stop-color:#ffffff;stop-opacity:1"
         offset="1"
         id="stop4012" />
    </linearGradient>
    <linearGradient
       inkscape:collect="always"
       xlink:href="#linearGradient3738"
       id="linearGradient2500"
       gradientUnits="userSpaceOnUse"
       gradientTransform="matrix(1.2790035,0,0,1.2790035,-285.85111,-159.82537)"
       x1="365.18353"
       y1="297.66803"
       x2="313.53992"
       y2="297.66803" />
    <linearGradient
       id="linearGradient3738"
       inkscape:collect="always">
      <stop
         id="stop3740"
         offset="0"
         style="stop-color:#001f3c;stop-opacity:1" />
      <stop
         id="stop3742"
         offset="1"
         style="stop-color:#0072e3;stop-opacity:1" />
    </linearGradient>
    <linearGradient
       inkscape:collect="always"
       xlink:href="#linearGradient3877"
       id="linearGradient2502"
       gradientUnits="userSpaceOnUse"
       gradientTransform="matrix(1.2790035,0,0,1.2790035,-285.85111,-159.82537)"
       x1="349.28439"
       y1="325.93362"
       x2="361.42859"
       y2="325.93362" />
    <linearGradient
       id="linearGradient3877">
      <stop
         id="stop3885"
         offset="0"
         style="stop-color:#ffffff;stop-opacity:0.49803922;" />
      <stop
         style="stop-color:#ffffff;stop-opacity:0;"
         offset="1"
         id="stop3881" />
    </linearGradient>
    <linearGradient
       inkscape:collect="always"
       xlink:href="#linearGradient3780"
       id="linearGradient2504"
       gradientUnits="userSpaceOnUse"
       x1="354.72363"
       y1="346.96472"
       x2="354.72363"
       y2="299.33945" />
    <linearGradient
       inkscape:collect="always"
       id="linearGradient3780">
      <stop
         style="stop-color:#ffffff;stop-opacity:1;"
         offset="0"
         id="stop3782" />
      <stop
         style="stop-color:#ffffff;stop-opacity:0;"
         offset="1"
         id="stop3784" />
    </linearGradient>
    <clipPath
       clipPathUnits="userSpaceOnUse"
       id="clipPath3230">
      <path
         inkscape:connector-curvature="0"
         style="fill:url(#linearGradient3990);fill-opacity:1;stroke:none"
         d="m 356.0706,293.4148 c -1.03253,10e-4 -2.08179,0.16955 -3.14057,0.44991 l -30.03686,7.9485 c -0.0783,0.0215 -0.12756,0.0525 -0.20132,0.075 -0.30833,0.094 -0.57569,0.19114 -0.80528,0.29994 -0.68131,0.31473 -1.02575,0.67942 -1.04686,1.04981 l 1.3287,18.5215 c 0.004,0.73593 0.65339,2.04009 1.97294,2.587 l 28.02366,11.62282 c 2.6909,1.0584 4.80825,1.0847 7.52935,0.0375 l 28.14446,-11.43533 c 1.38255,-0.53208 2.04002,-1.87295 2.01318,-2.62451 l 1.28845,-18.40902 c 0.0133,-0.0623 0.005,-0.12505 0,-0.18747 -0.0107,-0.11358 -0.05,-0.22619 -0.1208,-0.33744 -0.009,-0.0137 -0.0303,-0.0239 -0.0403,-0.0375 -0.0805,-0.11268 -0.17931,-0.23057 -0.32211,-0.33743 -0.0124,-0.009 -0.0275,-0.0286 -0.0403,-0.0375 -0.15976,-0.11278 -0.37353,-0.23517 -0.60395,-0.33743 -0.0101,-0.004 -0.03,0.004 -0.0403,0 -0.2456,-0.1067 -0.52193,-0.20914 -0.84553,-0.29995 l -0.28186,-0.075 -29.63421,-8.02349 c -1.09522,-0.29664 -2.10805,-0.45124 -3.14059,-0.44991 z"
         id="path3232" />
    </clipPath>
    <filter
       color-interpolation-filters="sRGB"
       inkscape:collect="always"
       id="filter3768">
      <feGaussianBlur
         inkscape:collect="always"
         stdDeviation="0.45266578"
         id="feGaussianBlur3770" />
    </filter>
    <linearGradient
       inkscape:collect="always"
       xlink:href="#linearGradient2774"
       id="linearGradient5397"
       gradientUnits="userSpaceOnUse"
       x1="427.85715"
       y1="-156.56918"
       x2="427.85715"
       y2="-133.70399" />
    <linearGradient
       inkscape:collect="always"
       id="linearGradient2774">
      <stop
         style="stop-color:#ffffff;stop-opacity:1;"
         offset="0"
         id="stop2776" />
      <stop
         style="stop-color:#ffffff;stop-opacity:0;"
         offset="1"
         id="stop2778" />
    </linearGradient>
    <linearGradient
       y2="-133.70399"
       x2="427.85715"
       y1="-156.56918"
       x1="427.85715"
       gradientUnits="userSpaceOnUse"
       id="linearGradient3258"
       xlink:href="#linearGradient2774"
       inkscape:collect="always" />
  </defs>
  <sodipodi:namedview
     id="base"
     pagecolor="#ffffff"
     bordercolor="#666666"
     borderopacity="1.0"
     inkscape:pageopacity="0.0"
     inkscape:pageshadow="2"
     inkscape:zoom="1.0940958"
     inkscape:cx="326.17784"
     inkscape:cy="-98.640593"
     inkscape:document-units="px"
     inkscape:current-layer="layer1"
     showgrid="false"
     inkscape:window-width="1678"
     inkscape:window-height="1029"
     inkscape:window-x="0"
     inkscape:window-y="19"
     inkscape:window-maximized="0"
     fit-margin-top="0"
     fit-margin-left="0"
     fit-margin-right="0"
     fit-margin-bottom="0" />
  <metadata
     id="metadata3265">
    <rdf:RDF>
      <cc:Work
         rdf:about="">
        <dc:format>image/svg+xml</dc:format>
        <dc:type
           rdf:resource="http://purl.org/dc/dcmitype/StillImage" />
        <dc:title></dc:title>
      </cc:Work>
    </rdf:RDF>
  </metadata>
  <g
     inkscape:label="Camada 1"
     inkscape:groupmode="layer"
     id="layer1"
     transform="translate(-137.80963,-81.853223)">
    <g
       transform="translate(12.918289,-131.57605)"
       id="g3150">
      <path
         inkscape:connector-curvature="0"
         transform="matrix(1.0607998,0,0,1.0607998,-42.878174,507.78718)"
         id="path5149"
         d="m 338.87369,-268.48056 0,17.75 6.90625,-17.75 -6.90625,0 z m -74.125,0.0937 c -2.21024,4e-5 -4.12618,0.83656 -5.59375,2.4375 -1.45237,1.54043 -2.21876,3.39017 -2.21875,5.4375 l 0,21.46875 c 0,0.89994 0.0742,1.74014 0.25,2.53125 l 0.0312,0 c 0.41903,1.72023 1.26497,3.12761 2.5625,4.03125 1.29753,0.90364 2.97666,1.3125 4.96875,1.3125 l 21.25,0 c 2.47999,0 4.45796,-0.63378 5.8125,-2 1.35454,-1.36622 1.99998,-3.37689 2,-5.875 l 0,-21.46875 c -4e-5,-2.12613 -0.80716,-4.02585 -2.3125,-5.53125 -1.46721,-1.55605 -3.33179,-2.34371 -5.5,-2.34375 l -21.25,0 z m 43.625,0 c -2.24721,4e-5 -4.21735,0.83373 -5.6875,2.4375 -1.45237,1.54043 -2.1875,3.39017 -2.1875,5.4375 l 0,7.15625 c 0,0.74908 0.0693,1.47882 0.25,2.15625 0.39925,1.73012 1.30405,3.15083 2.65625,4.1875 1.35909,1.04199 3.05184,1.53127 4.96875,1.53125 l 18.03125,0 0,5.65625 -22.40625,0 c 1.1497,1.11883 1.87498,2.6748 1.875,4.34375 0,1.6538 -0.69251,3.18821 -1.8125,4.3125 l 23.09375,0 c 2.35421,0 4.37099,-0.79838 5.8125,-2.375 1.35176,-1.44191 1.99995,-3.32018 2,-5.5 l 0,-7.1875 c -4e-5,-2.15786 -0.75333,-4.05261 -2.21875,-5.5625 -1.47202,-1.51656 -3.39368,-2.31247 -5.59375,-2.3125 l -18.03125,0 0,-5.65625 22.65625,0 0.75,0 0,-0.75 0,-7.125 0,-0.75 -0.75,0 -23.40625,0 z m 49.125,0 c -2.24722,4e-5 -4.28963,0.80757 -6.03125,2.375 -1.72517,1.50955 -2.81999,3.30559 -3.21875,5.34375 l -1.46875,7.1875 c -0.13084,0.74138 -0.1702,1.44729 -0.125,2.125 0.0446,1.74014 0.64472,3.20693 1.8125,4.28125 l 0.0312,0.0312 c 1.21386,1.07382 2.83309,1.56252 4.75,1.5625 l 17.875,0 -1.15625,5.65625 -24.34375,0 c 1.14971,1.11882 1.87501,2.67476 1.875,4.34375 0,1.65383 -0.69251,3.18822 -1.8125,4.3125 l 23.5,0 c 2.35421,0 4.44475,-0.77656 6.15625,-2.3125 1.58079,-1.40517 2.59738,-3.23703 3.03125,-5.40625 l 1.46875,-7.1875 c 0.43921,-2.1523 0.0465,-4.13351 -1.1875,-5.6875 -1.19733,-1.56567 -3.01868,-2.34372 -5.21875,-2.34375 l -17.84375,0 1.125,-5.65625 22.8125,0 0.625,0 0.125,-0.625 1.40625,-7.09375 0.15625,-0.90625 -0.90625,0 -23.4375,0 z m 27.125,0 0.4375,1.03125 9.46875,23 -2.4375,12.28125 -0.1875,0.90625 0.9375,0 7.03125,0 0.625,0 0.125,-0.625 2.46875,-12.28125 19.5625,-24.3125 -9.4375,0 -0.40625,0 -0.21875,0.28125 -12.40625,16.75 -5.71875,-16.53125 -0.1875,-0.5 -0.53125,0 -7.96875,0 -1.15625,0 z m 45.9375,0 c -2.24722,4e-5 -4.28962,0.80757 -6.03125,2.375 -1.72517,1.50955 -2.81998,3.30559 -3.21875,5.34375 l -1.46875,7.1875 c -0.13084,0.74139 -0.17018,1.44731 -0.125,2.125 0.0446,1.74015 0.64474,3.20693 1.8125,4.28125 l 0.0312,0 0,0.0312 c 1.21386,1.07382 2.83307,1.56252 4.75,1.5625 l 17.875,0 -1.15625,5.65625 -24.6875,0 -0.625,0 -0.125,0.625 -1.375,7.125 -0.1875,0.90625 0.90625,0 25.3125,0 c 2.35421,0 4.44474,-0.77657 6.15625,-2.3125 1.58079,-1.40517 2.62862,-3.23703 3.0625,-5.40625 l 1.4375,-7.1875 c 0.43921,-2.1523 0.0465,-4.1335 -1.1875,-5.6875 -1.19733,-1.56567 -3.0187,-2.34372 -5.21875,-2.34375 l -17.84375,0 1.15625,-5.65625 22.78125,0 0.625,0 0.125,-0.625 1.40625,-7.09375 0.15625,-0.90625 -0.90625,0 -23.4375,0 z m 27.21875,0 -0.0937,0.59375 -1.40625,7.125 -0.1875,0.90625 0.9375,0 13.15625,0 -5.53125,27.6875 -0.15625,0.90625 0.90625,0 7.0625,0 0.625,0 0.125,-0.625 5.59375,-27.96875 14.25,-0.0312 1.4375,-7.6875 0.1875,-0.90625 -0.9375,0 -35.34375,0 -0.625,0 z m 48.46875,0 c -2.42044,4e-5 -4.51351,0.72239 -6.15625,2.1875 -1.57796,1.44649 -2.59851,3.3243 -3.03125,5.53125 l -4.3125,21.46875 c -0.43691,2.18452 -0.0985,4.15965 1.09375,5.71875 1.20399,1.52816 3.04894,2.3125 5.28125,2.3125 l 26.46875,0 0.625,0 0.125,-0.625 1.40625,-7.09375 0.1875,-0.9375 -0.9375,0 -25.53125,0 1.15625,-5.65625 20.59375,0 c 2.31676,2e-5 4.40877,-0.78348 6.15625,-2.3125 l 0.0312,0 c 1.61715,-1.44235 2.63825,-3.26678 3.03125,-5.40625 l 1.4375,-7.15625 0.0312,-0.0312 c 0.43666,-2.18352 0.0743,-4.13404 -1.125,-5.65625 -1.2002,-1.56939 -3.04405,-2.34371 -5.28125,-2.34375 l -21.25,0 z m 34.375,0 -0.125,0.59375 -7.09375,35.71875 -0.1875,0.90625 0.9375,0 7.03125,0 0.625,0 0.125,-0.625 5.59375,-27.96875 12.625,0 -5.53125,27.6875 -0.1875,0.90625 0.9375,0 7.0625,0 0.625,0 0.125,-0.625 5.59375,-27.96875 12.5625,0 -5.53125,27.6875 -0.1875,0.90625 0.90625,0 7.78125,0 5.8125,-29.21875 c 0.17267,-0.86363 0.23249,-1.67133 0.1875,-2.4375 -0.0664,-1.77077 -0.67427,-3.22298 -1.84375,-4.1875 -1.16948,-0.96452 -2.79858,-1.37498 -4.8125,-1.375 l -42.40625,0 -0.625,0 z m 64,0 c -2.24722,4e-5 -4.28961,0.80758 -6.03125,2.375 -1.72517,1.50955 -2.81996,3.30559 -3.21875,5.34375 l -1.46875,7.1875 c -0.13084,0.74138 -0.1702,1.44729 -0.125,2.125 0.0446,1.74015 0.64476,3.20694 1.8125,4.28125 l 0.0312,0 0,0.0312 c 1.21386,1.07382 2.83306,1.56252 4.75,1.5625 l 17.875,0 -1.15625,5.65625 -24.6875,0 -0.625,0 -0.125,0.625 -1.40625,7.125 -0.15625,0.90625 0.90625,0 25.3125,0 c 2.35421,0 4.44475,-0.77656 6.15625,-2.3125 1.58079,-1.40517 2.62863,-3.23703 3.0625,-5.40625 l 1.4375,-7.1875 c 0.43921,-2.1523 0.0465,-4.13351 -1.1875,-5.6875 -1.19733,-1.56567 -3.01871,-2.34372 -5.21875,-2.34375 l -17.84375,0 1.125,-5.65625 22.8125,0 0.625,0 0.125,-0.625 1.40625,-7.09375 0.15625,-0.90625 -0.90625,0 -23.4375,0 z m -339.09375,8.625 19.6875,0 0,19.9375 -19.6875,0 0,-19.9375 z m 239.9375,0 19.6875,0 -1.15625,5.65625 -19.65625,0 1.125,-5.65625 z m -205.6875,19.90625 c -2.38951,0 -4.37502,1.98547 -4.375,4.375 0,2.38952 1.9855,4.375 4.375,4.375 2.38952,0 4.37498,-1.98551 4.375,-4.375 0,-2.38951 -1.98549,-4.375 -4.375,-4.375 z m 41.59375,0 c -2.38951,0 -4.34373,2.01908 -4.34375,4.375 0,2.35594 1.95424,4.375 4.34375,4.375 2.38952,0 4.37502,-1.98548 4.375,-4.375 0,-2.38952 -1.9855,-4.375 -4.375,-4.375 z"
         style="font-size:60.83220291px;font-style:normal;font-variant:normal;font-weight:bold;font-stretch:normal;text-align:start;line-height:100%;writing-mode:lr-tb;text-anchor:start;fill:#000000;fill-opacity:1;stroke:none;filter:url(#filter3653);font-family:Zero Twos;-inkscape-font-specification:Zero Twos Bold" />
      <path
         inkscape:connector-curvature="0"
         sodipodi:nodetypes="cccccccccccsccccccccccccccccccccccccccccccccccccccccccccccccccccccccccccccccccccccccccccccccccccccccccccccccccccccccccccccccccccccccccccccccccccccscccccccccccccccccccccccccccccccccccccccc"
         id="path5155"
         d="m 335.36326,222.0894 c -2.38385,4e-5 -4.55044,0.85667 -6.39795,2.51939 -1.83006,1.60134 -2.99144,3.50657 -3.41445,5.66865 l -1.55805,7.6245 c -0.13879,0.78646 -0.18055,1.53529 -0.1326,2.2542 0.0473,1.84594 0.68392,3.40191 1.9227,4.54155 l 0.0331,0.0332 c 1.28766,1.13911 3.00534,1.65752 5.0388,1.6575 l 18.9618,0 -1.22655,6.00015 -25.82385,0 c 1.21961,1.18684 1.98901,2.83738 1.989,4.60785 0,1.75438 -0.73461,3.38206 -1.9227,4.5747 l 24.9288,0 c 2.49734,0 4.71499,-0.82378 6.53055,-2.4531 1.6769,-1.49061 2.7553,-3.43384 3.21554,-5.73495 l 1.55805,-7.6245 c 0.46592,-2.28316 0.0493,-4.38483 -1.2597,-6.0333 -1.27012,-1.66086 -3.20221,-2.48622 -5.53604,-2.48625 l -18.92865,0 1.1934,-6.00015 24.19949,0 0.663,0 0.1326,-0.663 1.49175,-7.52504 0.16575,-0.96135 -0.96135,0 -24.86249,0 z m 28.77419,0 0.4641,1.09395 10.04445,24.39839 -2.5857,13.02795 -0.1989,0.96135 0.9945,0 7.45875,0 0.663,0 0.1326,-0.663 2.61885,-13.02795 20.76199,-25.80382 -10.02139,0.0131 -0.43095,0 -0.23205,0.29835 -13.16055,17.76839 -6.06645,-17.53634 -0.1989,-0.5304 -0.56355,0 -8.45325,0 -1.22655,0 z m 48.73049,0 c -2.38385,4e-5 -4.55042,0.85667 -6.39794,2.51939 -1.83006,1.60134 -2.99144,3.50657 -3.41445,5.66865 l -1.55805,7.6245 c -0.1388,0.78647 -0.18053,1.53531 -0.1326,2.2542 0.0473,1.84595 0.68394,3.40191 1.9227,4.54155 l 0.0331,0 0,0.0332 c 1.28766,1.13911 3.00532,1.65752 5.03879,1.6575 l 18.9618,0 -1.22655,6.00015 -26.18849,0 -0.663,0 -0.1326,0.663 -1.4586,7.5582 -0.1989,0.96135 0.96135,0 26.85149,0 c 2.49735,0 4.71498,-0.82379 6.53055,-2.4531 1.6769,-1.49061 2.78844,-3.43384 3.2487,-5.73495 l 1.5249,-7.6245 c 0.46591,-2.28316 0.0493,-4.38481 -1.2597,-6.0333 -1.27013,-1.66086 -3.20224,-2.48622 -5.53605,-2.48625 l -18.92865,0 1.22655,-6.00015 24.16635,0 0.663,0 0.1326,-0.663 1.49175,-7.52504 0.16575,-0.96135 -0.96135,0 -24.8625,0 z m 28.87365,0 -0.0994,0.62985 -1.49175,7.55819 -0.1989,0.96135 0.9945,0 13.95615,0 -5.86755,29.3709 -0.16575,0.96135 0.96135,0 7.4919,0 0.663,0 0.1326,-0.663 5.93384,-29.66925 15.11167,-0.0237 1.52963,-8.16437 0.1989,-0.96135 -0.9945,0 -37.49264,0 -0.663,0 z m 51.41564,0 c -2.5676,4e-5 -4.78793,0.76631 -6.53055,2.3205 -1.6739,1.53443 -2.7565,3.52641 -3.21555,5.86754 l -4.5747,22.77405 c -0.46347,2.31734 -0.1045,4.41256 1.16025,6.06645 1.27719,1.62107 3.23432,2.4531 5.60235,2.4531 l 28.07805,0 0.66299,0 0.1326,-0.663 1.49175,-7.52505 0.1989,-0.9945 -0.9945,0 -27.08354,0 1.22655,-6.00015 21.84585,0 c 2.45761,2e-5 4.67682,-0.83111 6.53054,-2.4531 l 0.0331,0 c 1.71548,-1.53004 2.79866,-3.4654 3.21555,-5.73495 l 1.5249,-7.59135 0.0331,-0.0331 c 0.46321,-2.31627 0.0788,-4.38538 -1.1934,-6.00015 -1.27317,-1.6648 -3.22912,-2.4862 -5.60235,-2.48624 l -22.54199,0 z m 36.46499,0 -0.1326,0.62985 -7.52505,37.89044 -0.1989,0.96135 0.9945,0 7.45875,0 0.663,0 0.1326,-0.663 5.93385,-29.66925 13.3926,0 -5.86755,29.3709 -0.1989,0.96135 0.9945,0 7.4919,0 0.663,0 0.1326,-0.663 5.93385,-29.66925 13.32629,0 -5.86754,29.3709 -0.1989,0.96135 0.96134,0 8.25335,-0.01 6.1669,-30.98523 c 0.18317,-0.91613 0.24663,-1.77294 0.1989,-2.5857 -0.0705,-1.87843 -0.71526,-3.41893 -1.95585,-4.44209 -1.24058,-1.02317 -2.96873,-1.45858 -5.1051,-1.4586 l -44.98454,0 -0.663,0 z m 67.89119,0 c -2.38385,4e-5 -4.55042,0.85668 -6.39795,2.51939 -1.83006,1.60134 -2.99141,3.50657 -3.41445,5.66865 l -1.55805,7.6245 c -0.13879,0.78646 -0.18055,1.53529 -0.1326,2.2542 0.0473,1.84595 0.68396,3.40192 1.9227,4.54155 l 0.0332,0 0,0.0332 c 1.28766,1.13911 3.00531,1.65752 5.0388,1.6575 l 18.9618,0 -1.22655,6.00015 -26.1885,0 -0.663,0 -0.1326,0.663 -1.49175,7.5582 -0.16575,0.96135 0.96135,0 26.8515,0 c 2.49734,0 4.71499,-0.82378 6.53055,-2.4531 1.6769,-1.49061 2.78845,-3.43384 3.2487,-5.73495 l 1.52489,-7.6245 c 0.46592,-2.28316 0.0493,-4.38483 -1.25969,-6.0333 -1.27013,-1.66086 -3.20225,-2.48622 -5.53605,-2.48625 l -18.92865,0 1.1934,-6.00015 24.19949,0 0.663,0 0.1326,-0.663 1.49175,-7.52504 0.16575,-0.96135 -0.96135,0 -24.86249,0 z m -105.18493,9.14939 20.8845,0 -1.22655,6.00015 -20.85135,0 1.1934,-6.00015 z"
         style="font-size:60.83220291px;font-style:normal;font-variant:normal;font-weight:bold;font-stretch:normal;text-align:start;line-height:100%;writing-mode:lr-tb;text-anchor:start;fill:url(#linearGradient2473);fill-opacity:1;stroke:none;font-family:Zero Twos;-inkscape-font-specification:Zero Twos Bold" />
      <path
         inkscape:connector-curvature="0"
         style="font-size:60.83220291px;font-style:normal;font-variant:normal;font-weight:bold;font-stretch:normal;text-align:start;line-height:100%;writing-mode:lr-tb;text-anchor:start;fill:url(#linearGradient2470);fill-opacity:1;stroke:none;font-family:Zero Twos;-inkscape-font-specification:Zero Twos Bold"
         d="m 315.60586,222.00108 0,18.8292 7.32615,-18.8292 -7.32615,0 z m -78.63178,0.0994 c -2.34462,5e-5 -4.37705,0.88743 -5.93385,2.5857 -1.54068,1.63409 -2.35366,3.5963 -2.35365,5.7681 l 0,22.77405 c 0,0.95465 0.0787,1.84594 0.2652,2.68515 l 0.0331,0 c 0.44451,1.82482 1.34188,3.31777 2.7183,4.27635 1.37642,0.95858 3.15764,1.3923 5.27085,1.3923 l 22.54199,0 c 2.63078,0 4.72901,-0.67232 6.1659,-2.1216 1.4369,-1.44929 2.12158,-3.58221 2.1216,-6.2322 l 0,-22.77405 c -4e-5,-2.2554 -0.85623,-4.27062 -2.4531,-5.86755 -1.55641,-1.65065 -3.53436,-2.4862 -5.8344,-2.48625 l -22.54199,0 z m 46.27739,0 c -2.38384,5e-5 -4.47377,0.88442 -6.0333,2.5857 -1.54067,1.63409 -2.3205,3.5963 -2.3205,5.7681 l 0,7.59135 c 0,0.79462 0.0736,1.56873 0.2652,2.28735 0.42352,1.83531 1.38334,3.3424 2.81775,4.4421 1.44172,1.10534 3.23739,1.62437 5.27085,1.62435 l 19.12754,0 0,6.00015 -23.76854,0 c 1.2196,1.18685 1.98898,2.83743 1.989,4.60785 0,1.75435 -0.73462,3.38205 -1.9227,4.5747 l 24.49784,0 c 2.49735,0 4.63675,-0.84692 6.1659,-2.5194 1.43395,-1.52958 2.12155,-3.52205 2.1216,-5.8344 l 0,-7.6245 c -4e-5,-2.28906 -0.79913,-4.29901 -2.35365,-5.9007 -1.56151,-1.60877 -3.60001,-2.45307 -5.93385,-2.4531 l -19.12754,0 0,-6.00015 24.03374,0 0.7956,0 0,-0.7956 0,-7.5582 0,-0.7956 -0.7956,0 -24.82934,0 z m -45.44864,9.1494 20.88449,0 0,21.1497 -20.88449,0 0,-21.1497 z m 36.33239,21.11655 c -2.53479,0 -4.64102,2.10618 -4.641,4.641 0,2.5348 2.10622,4.641 4.641,4.641 2.5348,0 4.64098,-2.10623 4.641,-4.641 0,-2.53479 -2.10621,-4.641 -4.641,-4.641 z m 44.12264,0 c -2.53479,0 -4.60783,2.14184 -4.60785,4.641 0,2.49918 2.07306,4.641 4.60785,4.641 2.5348,0 4.64102,-2.1062 4.641,-4.641 0,-2.53481 -2.10622,-4.641 -4.641,-4.641 z"
         id="path5157" />
      <path
         inkscape:connector-curvature="0"
         id="path5159"
         d="m 274.13522,252.95204 c -2.19587,0 -4.04432,1.84842 -4.0443,4.0443 0,2.19588 1.84844,4.0443 4.0443,4.0443 2.19587,0 4.04428,-1.84846 4.0443,-4.0443 0,-2.19587 -1.84843,-4.0443 -4.0443,-4.0443 z"
         style="opacity:0.86813187;fill:url(#radialGradient2467);fill-opacity:1;stroke:none" />
      <path
         inkscape:connector-curvature="0"
         style="opacity:0.86813187;fill:url(#radialGradient2464);fill-opacity:1;stroke:none"
         d="m 318.27444,252.95204 c -2.19586,0 -4.04432,1.84842 -4.0443,4.0443 0,2.19588 1.84845,4.0443 4.0443,4.0443 2.19587,0 4.04428,-1.84846 4.0443,-4.0443 0,-2.19587 -1.84843,-4.0443 -4.0443,-4.0443 z"
         id="path5161" />
      <g
         transform="matrix(1.0317661,0,0,1.0317661,-1.8121045,-6.7798107)"
         id="g2482">
        <path
           inkscape:href="#path3933"
           transform="matrix(1.2235598,0,0,1.6664823,-265.89333,-250.20804)"
           clip-path="none"
           d="m 356.0625,290.90625 c -1.13332,0.002 -2.24847,0.17966 -3.375,0.5 l -30.0625,8.53125 a 0.94711273,0.94711273 0 0 0 -0.0312,0 c -0.75703,0.22319 -1.36374,0.50105 -1.84375,0.875 -0.48001,0.37395 -0.87271,0.90399 -0.875,1.5625 -0.002,0.65851 0.40007,1.21827 0.875,1.59375 0.47493,0.37548 1.06668,0.65029 1.8125,0.875 l 29.1875,9.34375 c 2.84159,0.85619 5.51073,0.84445 8.375,0 L 389.40625,305 c 0.7559,-0.22286 1.33431,-0.50338 1.8125,-0.875 0.47819,-0.37162 0.88182,-0.90281 0.875,-1.5625 -0.007,-0.65969 -0.3992,-1.1937 -0.875,-1.5625 -0.4758,-0.3688 -1.06881,-0.65092 -1.8125,-0.875 a 0.94711273,0.94711273 0 0 0 -0.0312,0 l -29.90625,-8.71875 c -1.17053,-0.34047 -2.28014,-0.50156 -3.40625,-0.5 z"
           id="path5147"
           style="fill:#000000;fill-opacity:1;stroke:none;filter:url(#filter3808)"
           xlink:href="#path3933"
           inkscape:original="M 356.0625 291.84375 C 355.02996 291.84518 353.99628 292.01143 352.9375 292.3125 L 322.875 300.84375 C 320.15144 301.64671 320.16678 303.13095 322.84375 303.9375 L 352.03125 313.28125 C 354.72212 314.09203 357.12264 314.08349 359.84375 313.28125 L 389.125 304.09375 C 391.84855 303.29078 391.80186 301.83782 389.125 301.03125 L 359.21875 292.3125 C 358.12352 291.99393 357.09504 291.84232 356.0625 291.84375 z "
           inkscape:radius="0.94701803"
           sodipodi:type="inkscape:offset" />
        <path
           inkscape:connector-curvature="0"
           id="path5151"
           d="m 169.56441,213.42928 c -1.32061,0.002 -2.66262,0.23288 -4.01679,0.61797 l -38.41726,10.91751 c -0.1001,0.0295 -0.16315,0.0721 -0.25749,0.10299 -0.39436,0.12912 -0.7363,0.26253 -1.02995,0.41198 -0.87141,0.43229 -1.31194,0.9332 -1.33895,1.44194 l 1.69942,25.43984 c 0.005,1.01082 0.83569,2.80212 2.5234,3.55332 l 35.84236,15.96428 c 3.44167,1.45375 6.14977,1.48988 9.63006,0.0515 l 35.99685,-15.70678 c 1.7683,-0.73083 2.60921,-2.57254 2.57487,-3.60485 l 1.64793,-25.28533 c 0.017,-0.0855 0.007,-0.17176 0,-0.2575 -0.0136,-0.15601 -0.064,-0.31066 -0.15449,-0.46347 -0.0115,-0.0188 -0.0388,-0.0328 -0.0515,-0.0515 -0.10289,-0.15477 -0.22934,-0.31671 -0.41199,-0.46348 -0.0158,-0.0123 -0.0351,-0.0393 -0.0515,-0.0515 -0.20434,-0.15492 -0.47776,-0.323 -0.77247,-0.46347 -0.013,-0.006 -0.0384,0.006 -0.0515,0 -0.31413,-0.14657 -0.66755,-0.28726 -1.08145,-0.41199 l -0.36049,-0.10299 -37.90226,-11.0205 c -1.40079,-0.40744 -2.6962,-0.6198 -4.01682,-0.61797 z"
           style="fill:#001f3c;fill-opacity:1;stroke:none" />
        <path
           inkscape:connector-curvature="0"
           style="opacity:0.61172162;fill:url(#linearGradient2494);fill-opacity:1;stroke:none"
           d="m 169.56441,213.42928 c -1.32061,0.002 -2.66262,0.23288 -4.01679,0.61797 l -38.41726,10.91751 c -0.1001,0.0295 -0.16315,0.0721 -0.25749,0.10299 -0.39436,0.12912 -0.7363,0.26253 -1.02995,0.41198 -0.87141,0.43229 -1.31194,0.9332 -1.33895,1.44194 l 1.69942,25.43984 c 0.005,1.01082 0.83569,2.80212 2.5234,3.55332 l 35.84236,15.96428 c 3.44167,1.45375 6.14977,1.48988 9.63006,0.0515 l 35.99685,-15.70678 c 1.7683,-0.73083 2.60921,-2.57254 2.57487,-3.60485 l 1.64793,-25.28533 c 0.017,-0.0855 0.007,-0.17176 0,-0.2575 -0.0136,-0.15601 -0.064,-0.31066 -0.15449,-0.46347 -0.0115,-0.0188 -0.0388,-0.0328 -0.0515,-0.0515 -0.10289,-0.15477 -0.22934,-0.31671 -0.41199,-0.46348 -0.0158,-0.0123 -0.0351,-0.0393 -0.0515,-0.0515 -0.20434,-0.15492 -0.47776,-0.323 -0.77247,-0.46347 -0.013,-0.006 -0.0384,0.006 -0.0515,0 -0.31413,-0.14657 -0.66755,-0.28726 -1.08145,-0.41199 l -0.36049,-0.10299 -37.90226,-11.0205 c -1.40079,-0.40744 -2.6962,-0.6198 -4.01682,-0.61797 z"
           id="path5153" />
        <path
           inkscape:connector-curvature="0"
           style="fill:none;stroke:none"
           d="m 165.56074,214.03764 -38.44444,10.93231 c -3.48345,1.02699 -3.47059,2.91003 -0.0467,3.94161 l 37.32691,11.9476 c 3.44165,1.03696 6.51177,1.04111 9.99209,0.0151 l 37.46711,-11.75201 c 3.48342,-1.02699 3.42371,-2.91003 0,-3.94166 L 173.59824,214.0527 c -2.80161,-0.81488 -5.32907,-0.78517 -8.03745,-0.015 z"
           id="path5163"
           sodipodi:nodetypes="cccccccss" />
        <path
           inkscape:connector-curvature="0"
           sodipodi:nodetypes="cccccccss"
           id="path5165"
           d="m 165.56074,214.03764 -38.44444,10.93231 c -3.48345,1.02699 -3.47059,2.91003 -0.0467,3.94161 l 37.32691,11.9476 c 3.44165,1.03696 6.51177,1.04111 9.99209,0.0151 l 37.46711,-11.75201 c 3.48342,-1.02699 3.42371,-2.91003 0,-3.94166 L 173.59824,214.0527 c -2.80161,-0.81488 -5.32907,-0.78517 -8.03745,-0.015 z"
           style="fill:none;stroke:none" />
        <path
           inkscape:href="#path3933"
           transform="matrix(1.2790035,0,0,1.3735299,-285.85111,-189.5847)"
           clip-path="url(#clipPath3986)"
           d="m 356.0625,290.90625 c -1.13332,0.002 -2.24847,0.17966 -3.375,0.5 l -30.0625,8.53125 a 0.94711273,0.94711273 0 0 0 -0.0312,0 c -0.75703,0.22319 -1.36374,0.50105 -1.84375,0.875 -0.48001,0.37395 -0.87271,0.90399 -0.875,1.5625 -0.002,0.65851 0.40007,1.21827 0.875,1.59375 0.47493,0.37548 1.06668,0.65029 1.8125,0.875 l 29.1875,9.34375 c 2.84159,0.85619 5.51073,0.84445 8.375,0 L 389.40625,305 c 0.7559,-0.22286 1.33431,-0.50338 1.8125,-0.875 0.47819,-0.37162 0.88182,-0.90281 0.875,-1.5625 -0.007,-0.65969 -0.3992,-1.1937 -0.875,-1.5625 -0.4758,-0.3688 -1.06881,-0.65092 -1.8125,-0.875 a 0.94711273,0.94711273 0 0 0 -0.0312,0 l -29.90625,-8.71875 c -1.17053,-0.34047 -2.28014,-0.50156 -3.40625,-0.5 z"
           id="path5167"
           style="fill:url(#linearGradient2496);fill-opacity:1;stroke:none;filter:url(#filter3929)"
           xlink:href="#path3933"
           inkscape:original="M 356.0625 291.84375 C 355.02996 291.84518 353.99628 292.01143 352.9375 292.3125 L 322.875 300.84375 C 320.15144 301.64671 320.16678 303.13095 322.84375 303.9375 L 352.03125 313.28125 C 354.72212 314.09203 357.12264 314.08349 359.84375 313.28125 L 389.125 304.09375 C 391.84855 303.29078 391.80186 301.83782 389.125 301.03125 L 359.21875 292.3125 C 358.12352 291.99393 357.09504 291.84232 356.0625 291.84375 z "
           inkscape:radius="0.94701803"
           sodipodi:type="inkscape:offset" />
        <path
           sodipodi:type="inkscape:offset"
           inkscape:radius="-0.18727483"
           inkscape:original="M 319.15625 353.5625 L 297.09375 360.0625 C 296.05475 360.36881 296.05819 360.8755 297.09375 361.1875 L 319.0625 367.8125 C 320.09808 368.12452 321.77351 368.11882 322.8125 367.8125 L 344.84375 361.3125 C 345.88275 361.00618 345.91058 360.53076 344.875 360.21875 L 322.875 353.59375 C 321.83943 353.28173 320.19526 353.25619 319.15625 353.5625 z "
           style="fill:url(#linearGradient2498);fill-opacity:1;stroke:none"
           id="path5169"
           d="m 321,353.53125 c -0.6566,-0.007 -1.2888,0.0736 -1.78125,0.21875 l -22.0625,6.5 c -0.24629,0.0726 -0.42891,0.14338 -0.53125,0.21875 -0.10234,0.0754 -0.12505,0.13364 -0.125,0.15625 5e-5,0.0226 0.0222,0.08 0.125,0.15625 0.1028,0.0762 0.28574,0.14478 0.53125,0.21875 l 21.96875,6.625 c 0.98155,0.29574 2.63779,0.29106 3.625,0 l 22.03125,-6.5 c 0.24736,-0.0729 0.42471,-0.14438 0.53125,-0.21875 0.10654,-0.0744 0.12441,-0.14054 0.125,-0.15625 5.9e-4,-0.0157 0.006,-0.0519 -0.0937,-0.125 -0.0994,-0.0731 -0.28516,-0.1446 -0.53125,-0.21875 l -22,-6.625 c -0.49292,-0.14852 -1.1559,-0.2431 -1.8125,-0.25 z"
           transform="matrix(1.6479246,0,0,1.6479246,-359.47087,-367.8813)" />
        <path
           inkscape:connector-curvature="0"
           style="fill:url(#linearGradient2500);fill-opacity:1;stroke:none"
           d="m 169.50901,214.68794 c -1.08204,-0.0114 -2.12385,0.12123 -2.93538,0.36049 l -36.35733,10.71151 c -0.40588,0.11964 -0.70681,0.23627 -0.87546,0.36047 -0.16865,0.1242 -0.20608,0.22021 -0.20599,0.25749 9e-5,0.0373 0.0366,0.1319 0.20599,0.25749 0.11127,0.0825 0.34946,0.17978 0.56647,0.25748 0.11859,-0.0432 0.16129,-0.11095 0.30899,-0.15449 l 36.35733,-10.7115 c 0.81153,-0.23926 1.85334,-0.37186 2.93538,-0.36049 1.08202,0.0114 2.17455,0.16723 2.98685,0.41199 l 36.25435,10.9175 c 0.0984,0.0296 0.11992,0.0737 0.20599,0.103 0.24035,-0.0844 0.49383,-0.17084 0.61796,-0.2575 0.17556,-0.12259 0.20503,-0.2316 0.20599,-0.2575 9.7e-4,-0.0259 0.009,-0.0856 -0.1545,-0.20598 -0.16372,-0.12042 -0.46991,-0.23829 -0.87544,-0.36048 l -36.25435,-10.9175 c -0.8123,-0.24476 -1.90483,-0.40061 -2.98685,-0.41198 z"
           id="path5171" />
        <path
           inkscape:connector-curvature="0"
           style="opacity:0;fill:url(#linearGradient2502);fill-opacity:1;stroke:none"
           d="m 169.56441,213.42928 c -1.32061,0.002 -2.66262,0.23288 -4.01679,0.61797 l -38.41726,10.91751 c -0.1001,0.0295 -0.16315,0.0721 -0.25749,0.10299 -0.39436,0.12912 -0.7363,0.26253 -1.02995,0.41198 -0.87141,0.43229 -1.31194,0.9332 -1.33895,1.44194 l 1.69942,25.43984 c 0.005,1.01082 0.83569,2.80212 2.5234,3.55332 l 35.84236,15.96428 c 3.44167,1.45375 6.14977,1.48988 9.63006,0.0515 l 35.99685,-15.70678 c 1.7683,-0.73083 2.60921,-2.57254 2.57487,-3.60485 l 1.64793,-25.28533 c 0.017,-0.0855 0.007,-0.17176 0,-0.2575 -0.0136,-0.15601 -0.064,-0.31066 -0.15449,-0.46347 -0.0115,-0.0188 -0.0388,-0.0328 -0.0515,-0.0515 -0.10289,-0.15477 -0.22934,-0.31671 -0.41199,-0.46348 -0.0158,-0.0123 -0.0351,-0.0393 -0.0515,-0.0515 -0.20434,-0.15492 -0.47776,-0.323 -0.77247,-0.46347 -0.013,-0.006 -0.0384,0.006 -0.0515,0 -0.31413,-0.14657 -0.66755,-0.28726 -1.08145,-0.41199 l -0.36049,-0.10299 -37.90226,-11.0205 c -1.40079,-0.40744 -2.6962,-0.6198 -4.01682,-0.61797 z"
           id="path5173" />
        <path
           inkscape:href="#path3933"
           sodipodi:type="inkscape:offset"
           inkscape:radius="0.94701803"
           inkscape:original="M 356.0625 291.84375 C 355.02996 291.84518 353.99628 292.01143 352.9375 292.3125 L 322.875 300.84375 C 320.15144 301.64671 320.16678 303.13095 322.84375 303.9375 L 352.03125 313.28125 C 354.72212 314.09203 357.12264 314.08349 359.84375 313.28125 L 389.125 304.09375 C 391.84855 303.29078 391.80186 301.83782 389.125 301.03125 L 359.21875 292.3125 C 358.12352 291.99393 357.09504 291.84232 356.0625 291.84375 z "
           xlink:href="#path3933"
           style="opacity:0.90842489;fill:none;stroke:url(#linearGradient2504);stroke-width:1.00003779;stroke-linecap:butt;stroke-linejoin:round;stroke-miterlimit:4;stroke-opacity:1;stroke-dasharray:none;stroke-dashoffset:0;filter:url(#filter3768)"
           id="path5175"
           d="m 356.0625,290.90625 c -1.13332,0.002 -2.24847,0.17966 -3.375,0.5 l -30.0625,8.53125 a 0.94711273,0.94711273 0 0 0 -0.0312,0 c -0.75703,0.22319 -1.36374,0.50105 -1.84375,0.875 -0.48001,0.37395 -0.87271,0.90399 -0.875,1.5625 -0.002,0.65851 0.40007,1.21827 0.875,1.59375 0.47493,0.37548 1.06668,0.65029 1.8125,0.875 l 29.1875,9.34375 c 2.84159,0.85619 5.51073,0.84445 8.375,0 L 389.40625,305 c 0.7559,-0.22286 1.33431,-0.50338 1.8125,-0.875 0.47819,-0.37162 0.88182,-0.90281 0.875,-1.5625 -0.007,-0.65969 -0.3992,-1.1937 -0.875,-1.5625 -0.4758,-0.3688 -1.06881,-0.65092 -1.8125,-0.875 a 0.94711273,0.94711273 0 0 0 -0.0312,0 l -29.90625,-8.71875 c -1.17053,-0.34047 -2.28014,-0.50156 -3.40625,-0.5 z"
           clip-path="url(#clipPath3986)"
           transform="matrix(1.2790035,0,0,1.3735299,-285.85111,-189.5847)" />
      </g>
      <path
         d="m 338.28125,-149.875 0,15.5 6.03125,-15.5 -6.03125,0 z m -74.46875,0.0937 c -2.12013,4e-5 -3.93893,0.81126 -5.34375,2.34375 -1.39749,1.48223 -2.12501,3.2293 -2.125,5.1875 l 0,21.46875 c 0,0.82404 0.0722,1.5949 0.21875,2.3125 a 0.35717858,0.35717858 0 0 1 0.0312,0.0625 0.35717858,0.35717858 0 0 1 0.0312,0.0625 c 0.40347,1.65636 1.22294,2.99789 2.4375,3.84375 1.22041,0.84993 2.80678,1.25 4.75,1.25 l 21.25,0 c 2.41914,0 4.29147,-0.62426 5.5625,-1.90625 1.27113,-1.28209 1.90623,-3.18841 1.90625,-5.625 l 0,-21.46875 c -4e-5,-2.03575 -0.7745,-3.83695 -2.21875,-5.28125 -1.40487,-1.48993 -3.16828,-2.24996 -5.25,-2.25 l -21.25,0 z m 43.625,0 c -2.15888,4e-5 -4.03309,0.81169 -5.4375,2.34375 -1.39574,1.48037 -2.09375,3.22566 -2.09375,5.1875 l 0,7.15625 c 0,0.72704 0.0799,1.42479 0.25,2.0625 0.3823,1.65667 1.24304,3.01239 2.53125,4 1.2883,0.98771 2.89386,1.46877 4.75,1.46875 l 18.03125,0 a 0.35717858,0.35717858 0 0 1 0.34375,0.34375 l 0,5.65625 a 0.35717858,0.35717858 0 0 1 -0.34375,0.34375 l -21.65625,0 c 0.90578,1.11422 1.46873,2.49962 1.46875,4 0,1.48437 -0.52737,2.8564 -1.40625,3.96875 l 22.34375,0 c 2.27347,0 4.19241,-0.78275 5.5625,-2.28125 1.28488,-1.37057 1.9062,-3.14098 1.90625,-5.25 l 0,-7.1875 c -4e-5,-2.07475 -0.72098,-3.86587 -2.125,-5.3125 -1.40732,-1.4499 -3.22981,-2.21872 -5.34375,-2.21875 l -18.03125,0 a 0.35717858,0.35717858 0 0 1 -0.34375,-0.34375 l 0,-5.65625 a 0.35717858,0.35717858 0 0 1 0.34375,-0.34375 l 22.65625,0 0.40625,0 0,-0.40625 0,-7.125 0,-0.40625 -0.40625,0 -23.40625,0 z m 49.125,0 c -2.16167,4e-5 -4.09749,0.76589 -5.78125,2.28125 a 0.35717858,0.35717858 0 0 1 0,0.0312 c -1.67587,1.46641 -2.7423,3.16893 -3.125,5.125 l -1.46875,7.1875 c -0.12623,0.71524 -0.16819,1.38371 -0.125,2.03125 a 0.35717858,0.35717858 0 0 1 0,0.0312 c 0.0426,1.66325 0.62531,3.02532 1.71875,4.03125 l 0.0312,0 c 1.13608,1.00502 2.64379,1.50002 4.5,1.5 l 17.875,0 a 0.35717858,0.35717858 0 0 1 0.34375,0.40625 L 369.375,-121.5 a 0.35717858,0.35717858 0 0 1 -0.34375,0.28125 l -23.59375,0 c 0.90579,1.11421 1.46876,2.49958 1.46875,4 0,1.48439 -0.52737,2.85641 -1.40625,3.96875 l 22.75,0 c 2.27567,0 4.25781,-0.77065 5.90625,-2.25 1.52242,-1.35328 2.51709,-3.08557 2.9375,-5.1875 l 1.46875,-7.1875 c 0.42229,-2.06937 0.04,-3.93913 -1.125,-5.40625 -1.12585,-1.4722 -2.82163,-2.21872 -4.9375,-2.21875 l -17.84375,0 a 0.35717858,0.35717858 0 0 1 -0.34375,-0.40625 l 1.125,-5.65625 a 0.35717858,0.35717858 0 0 1 0.34375,-0.28125 l 22.8125,0 0.34375,0 0.0625,-0.34375 1.40625,-7.09375 0.0937,-0.5 -0.5,0 -23.4375,0 z m 27.65625,0 0.25,0.5625 9.46875,23 a 0.35717858,0.35717858 0 0 1 0,0.1875 L 391.5,-113.75 l -0.0937,0.5 0.5,0 7.03125,0 0.34375,0 0.0625,-0.34375 2.46875,-12.28125 a 0.35717858,0.35717858 0 0 1 0.0625,-0.15625 l 19.125,-23.75 -8.71875,0 -0.21875,0 -0.125,0.15625 -12.40625,16.75 a 0.35717858,0.35717858 0 0 1 -0.0312,0.0312 0.35717858,0.35717858 0 0 1 -0.59375,-0.125 L 393.1875,-149.5 l -0.0937,-0.28125 -0.28125,0 -7.96875,0 -0.625,0 z m 45.40625,0 c -2.16167,4e-5 -4.09748,0.76589 -5.78125,2.28125 a 0.35717858,0.35717858 0 0 1 0,0.0312 c -1.67587,1.46641 -2.74229,3.16893 -3.125,5.125 l -1.46875,7.1875 c -0.12623,0.71525 -0.16817,1.38371 -0.125,2.03125 a 0.35717858,0.35717858 0 0 1 0,0.0312 c 0.0414,1.61368 0.59494,2.94121 1.625,3.9375 a 0.35717858,0.35717858 0 0 1 0.0625,0.0625 c 0.0108,0.0101 0.0204,0.0213 0.0312,0.0312 a 0.35717858,0.35717858 0 0 1 0.0312,0 0.35717858,0.35717858 0 0 1 0.0625,0.0625 c 1.12863,0.9649 2.61747,1.43752 4.4375,1.4375 l 17.875,0 a 0.35717858,0.35717858 0 0 1 0.34375,0.40625 L 442.4375,-121.5 a 0.35717858,0.35717858 0 0 1 -0.34375,0.28125 l -24.6875,0 -0.34375,0 -0.0625,0.34375 -1.375,7.125 -0.0937,0.5 0.46875,0 25.3125,0 c 2.27567,0 4.2578,-0.77066 5.90625,-2.25 1.52417,-1.35484 2.54898,-3.0888 2.96875,-5.1875 l 1.4375,-7.1875 c 0.42229,-2.06937 0.04,-3.93912 -1.125,-5.40625 -1.12585,-1.47219 -2.82165,-2.21872 -4.9375,-2.21875 l -17.84375,0 a 0.35717858,0.35717858 0 0 1 -0.34375,-0.40625 l 1.15625,-5.65625 a 0.35717858,0.35717858 0 0 1 0.34375,-0.28125 l 22.78125,0 0.34375,0 0.0625,-0.34375 1.40625,-7.09375 0.0937,-0.5 -0.5,0 -23.4375,0 z m 27.53125,0 -0.0625,0.3125 -1.40625,7.125 -0.0937,0.5 0.5,0 13.15625,0 a 0.35717858,0.35717858 0 0 1 0.34375,0.40625 l -5.53125,27.6875 -0.0937,0.5 0.5,0 7.0625,0 0.34375,0 0.0625,-0.34375 5.59375,-27.96875 a 0.35717858,0.35717858 0 0 1 0.34375,-0.28125 l 13.96875,-0.0312 1.375,-7.40625 0.0937,-0.5 -0.5,0 -35.34375,0 -0.3125,0 z m 48.15625,0 c -2.34939,4e-5 -4.33246,0.72138 -5.90625,2.125 -1.51148,1.39215 -2.51934,3.17991 -2.9375,5.3125 l -4.3125,21.46875 c -0.42184,2.10915 -0.0924,3.96811 1.03125,5.4375 1.13099,1.43551 2.85135,2.1875 5,2.1875 l 26.46875,0 0.34375,0 0.0625,-0.34375 1.40625,-7.09375 0.0937,-0.53125 -0.5,0 -25.53125,0 a 0.35717858,0.35717858 0 0 1 -0.34375,-0.40625 l 1.15625,-5.65625 a 0.35717858,0.35717858 0 0 1 0.34375,-0.28125 l 20.59375,0 c 2.23624,2e-5 4.21957,-0.77418 5.90625,-2.25 a 0.35717858,0.35717858 0 0 1 0.0312,0 c 0.0113,-0.0101 0.02,-0.0211 0.0312,-0.0312 1.54152,-1.38746 2.52934,-3.10439 2.90625,-5.15625 l 1.4375,-7.15625 a 0.35717858,0.35717858 0 0 1 0.0312,-0.0937 c 0.40157,-2.07927 0.0552,-3.89379 -1.0625,-5.3125 -1.12741,-1.47421 -2.8452,-2.21871 -5,-2.21875 l -21.25,0 z m 34.65625,0 -0.0625,0.3125 -7.09375,35.71875 -0.0937,0.5 0.5,0 7.03125,0 0.34375,0 0.0625,-0.34375 5.59375,-27.96875 a 0.35717858,0.35717858 0 0 1 0.34375,-0.28125 l 12.625,0 a 0.35717858,0.35717858 0 0 1 0.34375,0.40625 l -5.53125,27.6875 -0.0937,0.5 0.5,0 7.0625,0 0.34375,0 0.0625,-0.34375 5.59375,-27.96875 a 0.35717858,0.35717858 0 0 1 0.34375,-0.28125 l 12.5625,0 a 0.35717858,0.35717858 0 0 1 0.34375,0.40625 l -5.53125,27.6875 -0.0937,0.5 0.46875,0 7.5,0 5.75,-28.9375 c 0.16739,-0.8372 0.23054,-1.61074 0.1875,-2.34375 a 0.35717858,0.35717858 0 0 1 0,-0.0312 c -0.0637,-1.69653 -0.63816,-3.01504 -1.71875,-3.90625 -1.08225,-0.89258 -2.62835,-1.31248 -4.59375,-1.3125 l -42.40625,0 -0.34375,0 z m 63.71875,0 c -2.16166,4e-5 -4.09747,0.7659 -5.78125,2.28125 a 0.35717858,0.35717858 0 0 1 0,0.0312 c -1.67587,1.46641 -2.74227,3.16892 -3.125,5.125 l -1.46875,7.1875 c -0.12623,0.71524 -0.16819,1.38371 -0.125,2.03125 a 0.35717858,0.35717858 0 0 1 0,0.0312 c 0.0414,1.61368 0.59496,2.94122 1.625,3.9375 a 0.35717858,0.35717858 0 0 1 0.0625,0.0625 c 0.0108,0.0101 0.0204,0.0213 0.0312,0.0312 a 0.35717858,0.35717858 0 0 1 0.0312,0 A 0.35717858,0.35717858 0 0 1 595,-129 c 1.12863,0.9649 2.61746,1.43752 4.4375,1.4375 l 17.875,0 a 0.35717858,0.35717858 0 0 1 0.34375,0.40625 L 616.5,-121.5 a 0.35717858,0.35717858 0 0 1 -0.34375,0.28125 l -24.6875,0 -0.34375,0 -0.0625,0.34375 -1.40625,7.125 -0.0937,0.5 0.5,0 25.3125,0 c 2.27567,0 4.25781,-0.77065 5.90625,-2.25 1.52417,-1.35484 2.54899,-3.0888 2.96875,-5.1875 l 1.4375,-7.1875 c 0.42229,-2.06937 0.04,-3.93913 -1.125,-5.40625 -1.12585,-1.47219 -2.82166,-2.21872 -4.9375,-2.21875 l -17.84375,0 a 0.35717858,0.35717858 0 0 1 -0.34375,-0.40625 l 1.125,-5.65625 a 0.35717858,0.35717858 0 0 1 0.34375,-0.28125 l 22.8125,0 0.34375,0 0.0625,-0.34375 1.40625,-7.09375 0.0937,-0.5 -0.5,0 -23.4375,0 z m -339.21875,7.9375 a 0.35717858,0.35717858 0 0 1 0.125,0 l 19.6875,0 A 0.35717858,0.35717858 0 0 1 284.625,-141.5 l 0,19.9375 a 0.35717858,0.35717858 0 0 1 -0.34375,0.34375 l -19.6875,0 A 0.35717858,0.35717858 0 0 1 264.25,-121.5625 l 0,-19.9375 a 0.35717858,0.35717858 0 0 1 0.21875,-0.34375 z m 239.9375,0 a 0.35717858,0.35717858 0 0 1 0.125,0 l 19.6875,0 a 0.35717858,0.35717858 0 0 1 0.34375,0.40625 l -1.15625,5.65625 A 0.35717858,0.35717858 0 0 1 523.0625,-135.5 l -19.65625,0 a 0.35717858,0.35717858 0 0 1 -0.34375,-0.40625 l 1.125,-5.65625 a 0.35717858,0.35717858 0 0 1 0.21875,-0.28125 z"
         id="path5177"
         style="font-size:60.83220291px;font-style:normal;font-variant:normal;font-weight:bold;font-stretch:normal;text-align:start;line-height:100%;writing-mode:lr-tb;text-anchor:start;fill:url(#linearGradient3258);fill-opacity:1;stroke:none;font-family:Zero Twos;-inkscape-font-specification:Zero Twos Bold"
         inkscape:original="M 337.9375 -150.21875 L 337.9375 -132.46875 L 344.84375 -150.21875 L 337.9375 -150.21875 z M 263.8125 -150.125 C 261.60226 -150.12496 259.68632 -149.28844 258.21875 -147.6875 C 256.76638 -146.14707 255.99999 -144.29733 256 -142.25 L 256 -120.78125 C 256 -119.88131 256.0742 -119.04111 256.25 -118.25 L 256.28125 -118.25 C 256.70028 -116.52977 257.54622 -115.12239 258.84375 -114.21875 C 260.14128 -113.31511 261.82041 -112.90625 263.8125 -112.90625 L 285.0625 -112.90625 C 287.54249 -112.90625 289.52046 -113.54003 290.875 -114.90625 C 292.22954 -116.27247 292.87498 -118.28314 292.875 -120.78125 L 292.875 -142.25 C 292.87496 -144.37613 292.06784 -146.27585 290.5625 -147.78125 C 289.09529 -149.3373 287.23071 -150.12496 285.0625 -150.125 L 263.8125 -150.125 z M 307.4375 -150.125 C 305.19029 -150.12496 303.22015 -149.29127 301.75 -147.6875 C 300.29763 -146.14707 299.5625 -144.29733 299.5625 -142.25 L 299.5625 -135.09375 C 299.5625 -134.34467 299.63183 -133.61493 299.8125 -132.9375 C 300.21175 -131.20738 301.11655 -129.78667 302.46875 -128.75 C 303.82784 -127.70801 305.52059 -127.21873 307.4375 -127.21875 L 325.46875 -127.21875 L 325.46875 -121.5625 L 303.0625 -121.5625 C 304.2122 -120.44367 304.93748 -118.8877 304.9375 -117.21875 C 304.9375 -115.56495 304.24499 -114.03054 303.125 -112.90625 L 326.21875 -112.90625 C 328.57296 -112.90625 330.58974 -113.70463 332.03125 -115.28125 C 333.38301 -116.72316 334.0312 -118.60143 334.03125 -120.78125 L 334.03125 -127.96875 C 334.03121 -130.12661 333.27792 -132.02136 331.8125 -133.53125 C 330.34048 -135.04781 328.41882 -135.84372 326.21875 -135.84375 L 308.1875 -135.84375 L 308.1875 -141.5 L 330.84375 -141.5 L 331.59375 -141.5 L 331.59375 -142.25 L 331.59375 -149.375 L 331.59375 -150.125 L 330.84375 -150.125 L 307.4375 -150.125 z M 356.5625 -150.125 C 354.31528 -150.12496 352.27287 -149.31743 350.53125 -147.75 C 348.80608 -146.24045 347.71126 -144.44441 347.3125 -142.40625 L 345.84375 -135.21875 C 345.71291 -134.47737 345.67355 -133.77146 345.71875 -133.09375 C 345.76336 -131.35361 346.36347 -129.88682 347.53125 -128.8125 L 347.5625 -128.78125 C 348.77636 -127.70743 350.39559 -127.21873 352.3125 -127.21875 L 370.1875 -127.21875 L 369.03125 -121.5625 L 344.6875 -121.5625 C 345.83721 -120.44368 346.56251 -118.88774 346.5625 -117.21875 C 346.5625 -115.56492 345.86999 -114.03053 344.75 -112.90625 L 368.25 -112.90625 C 370.60421 -112.90625 372.69475 -113.68281 374.40625 -115.21875 C 375.98704 -116.62392 377.00363 -118.45578 377.4375 -120.625 L 378.90625 -127.8125 C 379.34546 -129.9648 378.95274 -131.94601 377.71875 -133.5 C 376.52142 -135.06567 374.70007 -135.84372 372.5 -135.84375 L 354.65625 -135.84375 L 355.78125 -141.5 L 378.59375 -141.5 L 379.21875 -141.5 L 379.34375 -142.125 L 380.75 -149.21875 L 380.90625 -150.125 L 380 -150.125 L 356.5625 -150.125 z M 383.6875 -150.125 L 384.125 -149.09375 L 393.59375 -126.09375 L 391.15625 -113.8125 L 390.96875 -112.90625 L 391.90625 -112.90625 L 398.9375 -112.90625 L 399.5625 -112.90625 L 399.6875 -113.53125 L 402.15625 -125.8125 L 421.71875 -150.125 L 412.28125 -150.125 L 411.875 -150.125 L 411.65625 -149.84375 L 399.25 -133.09375 L 393.53125 -149.625 L 393.34375 -150.125 L 392.8125 -150.125 L 384.84375 -150.125 L 383.6875 -150.125 z M 429.625 -150.125 C 427.37778 -150.12496 425.33538 -149.31743 423.59375 -147.75 C 421.86858 -146.24045 420.77377 -144.44441 420.375 -142.40625 L 418.90625 -135.21875 C 418.77541 -134.47736 418.73607 -133.77144 418.78125 -133.09375 C 418.82586 -131.3536 419.42599 -129.88682 420.59375 -128.8125 L 420.625 -128.8125 L 420.625 -128.78125 C 421.83886 -127.70743 423.45807 -127.21873 425.375 -127.21875 L 443.25 -127.21875 L 442.09375 -121.5625 L 417.40625 -121.5625 L 416.78125 -121.5625 L 416.65625 -120.9375 L 415.28125 -113.8125 L 415.09375 -112.90625 L 416 -112.90625 L 441.3125 -112.90625 C 443.66671 -112.90625 445.75724 -113.68282 447.46875 -115.21875 C 449.04954 -116.62392 450.09737 -118.45578 450.53125 -120.625 L 451.96875 -127.8125 C 452.40796 -129.9648 452.01526 -131.946 450.78125 -133.5 C 449.58392 -135.06567 447.76255 -135.84372 445.5625 -135.84375 L 427.71875 -135.84375 L 428.875 -141.5 L 451.65625 -141.5 L 452.28125 -141.5 L 452.40625 -142.125 L 453.8125 -149.21875 L 453.96875 -150.125 L 453.0625 -150.125 L 429.625 -150.125 z M 456.84375 -150.125 L 456.75 -149.53125 L 455.34375 -142.40625 L 455.15625 -141.5 L 456.09375 -141.5 L 469.25 -141.5 L 463.71875 -113.8125 L 463.5625 -112.90625 L 464.46875 -112.90625 L 471.53125 -112.90625 L 472.15625 -112.90625 L 472.28125 -113.53125 L 477.875 -141.5 L 492.125 -141.53125 L 493.5625 -149.21875 L 493.75 -150.125 L 492.8125 -150.125 L 457.46875 -150.125 L 456.84375 -150.125 z M 505.3125 -150.125 C 502.89206 -150.12496 500.79899 -149.40261 499.15625 -147.9375 C 497.57829 -146.49101 496.55774 -144.6132 496.125 -142.40625 L 491.8125 -120.9375 C 491.37559 -118.75298 491.71399 -116.77785 492.90625 -115.21875 C 494.11024 -113.69059 495.95519 -112.90625 498.1875 -112.90625 L 524.65625 -112.90625 L 525.28125 -112.90625 L 525.40625 -113.53125 L 526.8125 -120.625 L 527 -121.5625 L 526.0625 -121.5625 L 500.53125 -121.5625 L 501.6875 -127.21875 L 522.28125 -127.21875 C 524.59801 -127.21873 526.69002 -128.00223 528.4375 -129.53125 L 528.46875 -129.53125 C 530.0859 -130.9736 531.107 -132.79803 531.5 -134.9375 L 532.9375 -142.09375 L 532.96875 -142.125 C 533.40541 -144.30852 533.04302 -146.25904 531.84375 -147.78125 C 530.64355 -149.35064 528.7997 -150.12496 526.5625 -150.125 L 505.3125 -150.125 z M 539.6875 -150.125 L 539.5625 -149.53125 L 532.46875 -113.8125 L 532.28125 -112.90625 L 533.21875 -112.90625 L 540.25 -112.90625 L 540.875 -112.90625 L 541 -113.53125 L 546.59375 -141.5 L 559.21875 -141.5 L 553.6875 -113.8125 L 553.5 -112.90625 L 554.4375 -112.90625 L 561.5 -112.90625 L 562.125 -112.90625 L 562.25 -113.53125 L 567.84375 -141.5 L 580.40625 -141.5 L 574.875 -113.8125 L 574.6875 -112.90625 L 575.59375 -112.90625 L 583.375 -112.90625 L 589.1875 -142.125 C 589.36017 -142.98863 589.41999 -143.79633 589.375 -144.5625 C 589.30856 -146.33327 588.70073 -147.78548 587.53125 -148.75 C 586.36177 -149.71452 584.73267 -150.12498 582.71875 -150.125 L 540.3125 -150.125 L 539.6875 -150.125 z M 603.6875 -150.125 C 601.44028 -150.12496 599.39789 -149.31742 597.65625 -147.75 C 595.93108 -146.24045 594.83629 -144.44441 594.4375 -142.40625 L 592.96875 -135.21875 C 592.83791 -134.47737 592.79855 -133.77146 592.84375 -133.09375 C 592.88836 -131.3536 593.48851 -129.88681 594.65625 -128.8125 L 594.6875 -128.8125 L 594.6875 -128.78125 C 595.90136 -127.70743 597.52056 -127.21873 599.4375 -127.21875 L 617.3125 -127.21875 L 616.15625 -121.5625 L 591.46875 -121.5625 L 590.84375 -121.5625 L 590.71875 -120.9375 L 589.3125 -113.8125 L 589.15625 -112.90625 L 590.0625 -112.90625 L 615.375 -112.90625 C 617.72921 -112.90625 619.81975 -113.68281 621.53125 -115.21875 C 623.11204 -116.62392 624.15988 -118.45578 624.59375 -120.625 L 626.03125 -127.8125 C 626.47046 -129.9648 626.07774 -131.94601 624.84375 -133.5 C 623.64642 -135.06567 621.82504 -135.84372 619.625 -135.84375 L 601.78125 -135.84375 L 602.90625 -141.5 L 625.71875 -141.5 L 626.34375 -141.5 L 626.46875 -142.125 L 627.875 -149.21875 L 628.03125 -150.125 L 627.125 -150.125 L 603.6875 -150.125 z M 264.59375 -141.5 L 284.28125 -141.5 L 284.28125 -121.5625 L 264.59375 -121.5625 L 264.59375 -141.5 z M 504.53125 -141.5 L 524.21875 -141.5 L 523.0625 -135.84375 L 503.40625 -135.84375 L 504.53125 -141.5 z "
         inkscape:radius="-0.35714287"
         sodipodi:type="inkscape:offset"
         transform="matrix(1.0607998,0,0,1.0607998,-42.878174,381.34197)" />
    </g>
  </g>
</svg>
